<svg xmlns="http://www.w3.org/2000/svg" viewBox="0 0 256 256">
  <rect width="256" height="256" fill="#F5F5F5"/>
  <path d="M128 40 C100 40 85 50 75 70 L65 60 C55 50 45 55 45 70 L45 100 C45 110 50 115 55 115 L60 115 C60 160 85 190 128 190 C171 190 196 160 196 115 L201 115 C206 115 211 110 211 100 L211 70 C211 55 201 50 191 60 L181 70 C171 50 156 40 128 40 Z" fill="#C8954D"/>
  <ellipse cx="105" cy="110" rx="8" ry="12" fill="#2C1810"/>
  <ellipse cx="151" cy="110" rx="8" ry="12" fill="#2C1810"/>
  <path d="M128 130 L118 145 C118 145 123 150 128 150 C133 150 138 145 138 145 Z" fill="#2C1810"/>
  <path d="M165 75 C165 75 175 70 185 75 C190 77.5 192 82 190 87 C188 92 182 95 177 93 C172 91 170 85 165 85 Z" fill="#6B9B4E"/>
</svg>